<?xml version="1.0" standalone="no"?>
<!DOCTYPE svg PUBLIC "-//W3C//DTD SVG 20010904//EN"
 "http://www.w3.org/TR/2001/REC-SVG-20010904/DTD/svg10.dtd">
<svg version="1.0" xmlns="http://www.w3.org/2000/svg"
 width="500.000000pt" height="500.000000pt" viewBox="0 0 500.000000 500.000000"
 preserveAspectRatio="xMidYMid meet">

<g transform="translate(0.000000,500.000000) scale(0.100000,-0.100000)"
fill="#000000" stroke="none">
<path d="M1145 2936 c-37 -17 -80 -62 -94 -99 -6 -16 -11 -70 -11 -121 0 -78
4 -100 23 -137 37 -69 82 -89 209 -92 l103 -2 3 -47 3 -48 -85 0 c-79 0 -86 2
-86 20 0 18 -7 20 -85 20 l-85 0 0 -110 0 -110 163 0 c232 1 289 19 328 104
15 34 19 66 19 194 l0 152 -170 0 -170 0 0 60 0 60 85 0 85 0 0 -30 0 -30 85
0 85 0 0 115 0 115 -187 0 c-135 -1 -197 -5 -218 -14z"/>
<path d="M1630 2581 l0 -368 85 -2 84 -2 3 118 3 118 41 -60 c86 -123 156
-165 289 -173 67 -4 78 -3 69 9 -19 24 -250 353 -268 381 l-18 27 113 123 c62
68 128 140 148 161 l35 37 -124 0 -125 0 -80 -97 -80 -96 -3 97 -3 96 -84 0
-85 0 0 -369z"/>
<path d="M2264 2916 l-34 -34 0 -336 1 -336 84 0 85 0 0 370 0 370 -51 0 c-45
0 -55 -4 -85 -34z"/>
<path d="M2585 2936 c-37 -17 -80 -62 -94 -99 -7 -18 -11 -140 -11 -328 l0
-299 219 0 219 0 1 90 2 90 -136 0 -135 0 0 280 c0 311 3 296 -65 266z"/>
<path d="M3065 2936 c-40 -17 -82 -67 -95 -114 -6 -21 -10 -158 -10 -324 l0
-288 225 0 224 0 -1 90 -1 90 -138 0 -139 0 0 280 c0 311 4 296 -65 266z"/>
<path d="M3450 2579 l0 -371 188 4 c205 4 226 9 276 68 43 52 48 88 44 327
l-3 221 -31 43 c-54 74 -72 79 -286 79 l-188 0 0 -371z m340 6 l0 -195 -85 0
-85 0 0 195 0 195 85 0 85 0 0 -195z"/>
<path d="M1827 2033 c-3 -10 -8 -31 -12 -48 -3 -16 -8 -38 -11 -47 -4 -13 0
-18 15 -18 14 0 21 9 27 33 l7 32 14 -32 c8 -21 20 -33 32 -33 18 0 18 2 3 44
-16 42 -15 46 3 68 12 14 7 12 -14 -7 l-34 -30 5 28 c4 21 1 27 -13 27 -10 0
-20 -8 -22 -17z"/>
<path d="M2355 2038 c-5 -16 -24 -100 -25 -110 0 -5 19 -8 43 -7 36 0 39 2 19
10 -16 6 -22 15 -18 26 3 10 8 35 12 56 5 30 3 37 -10 37 -9 0 -19 -6 -21 -12z"/>
<path d="M2922 2039 c2 -6 8 -10 13 -10 5 0 11 4 13 10 2 6 -4 11 -13 11 -9 0
-15 -5 -13 -11z"/>
<path d="M1958 1998 c-24 -20 -29 -46 -12 -63 20 -19 58 -19 74 0 10 12 10 15
-3 15 -9 0 -19 -4 -22 -10 -13 -21 -26 -9 -23 22 3 34 38 55 38 24 0 -9 7 -16
15 -16 18 0 19 12 3 28 -16 16 -50 15 -70 0z"/>
<path d="M2066 1991 c-24 -26 -17 -53 17 -65 21 -8 31 -6 44 7 10 10 12 17 6
17 -7 0 -15 -4 -18 -10 -13 -21 -26 -9 -23 22 3 32 28 53 28 24 0 -9 7 -16 16
-16 9 0 14 7 12 18 -5 26 -59 28 -82 3z"/>
<path d="M2171 1960 c-14 -66 -14 -70 4 -70 8 0 17 12 21 28 3 15 9 39 14 54
9 28 5 38 -16 38 -7 0 -17 -23 -23 -50z"/>
<path d="M2236 1986 c3 -15 -1 -29 -11 -40 -15 -15 -15 -17 -1 -22 25 -10 46
15 46 52 0 27 -4 34 -20 34 -16 0 -19 -5 -14 -24z"/>
<path d="M2458 1999 c-44 -26 -4 -88 48 -75 26 7 33 26 9 26 -8 0 -15 -4 -15
-10 0 -5 -7 -10 -15 -10 -16 0 -18 12 -9 48 7 25 34 31 34 7 0 -8 7 -15 16
-15 9 0 14 7 12 18 -4 20 -54 27 -80 11z"/>
<path d="M2570 1999 c-11 -8 -7 -9 17 -4 l31 6 -5 -40 c-5 -33 -3 -41 10 -41
17 0 34 60 22 79 -8 14 -55 14 -75 0z"/>
<path d="M2680 1996 c0 -7 -3 -28 -6 -45 -5 -24 -3 -31 9 -31 15 0 27 28 27
68 0 13 -6 22 -15 22 -8 0 -15 -6 -15 -14z"/>
<path d="M2727 2004 c-5 -6 16 -34 25 -34 2 0 4 9 5 20 2 19 -16 27 -30 14z"/>
<path d="M2781 1973 c-14 -51 -14 -53 9 -53 11 0 20 6 20 14 0 7 3 28 6 45 10
47 -22 42 -35 -6z"/>
<path d="M2842 1975 c-1 -20 -4 -40 -7 -45 -4 -6 3 -10 13 -10 20 0 32 25 32
68 0 15 -6 22 -18 22 -15 0 -19 -8 -20 -35z"/>
<path d="M2906 1979 c-9 -47 -7 -59 8 -59 8 0 17 12 20 28 4 15 9 35 12 45 4
12 0 17 -14 17 -14 0 -21 -9 -26 -31z"/>
<path d="M2976 2002 c-2 -4 -7 -24 -11 -45 -6 -30 -4 -37 8 -37 16 0 41 65 31
82 -6 10 -21 11 -28 0z"/>
<path d="M3030 1982 c0 -17 -3 -37 -6 -46 -4 -11 0 -16 14 -16 13 0 21 7 21
18 0 9 2 28 3 42 2 17 -3 25 -14 28 -14 3 -18 -3 -18 -26z"/>
<path d="M3102 1998 c-14 -14 -16 -68 -2 -68 21 0 25 4 22 22 -2 11 4 28 14
39 16 18 16 19 -2 19 -11 0 -25 -5 -32 -12z"/>
<path d="M3161 1992 c-5 -9 -12 -34 -16 -55 -6 -31 -11 -37 -34 -38 -18 -1
-20 -3 -8 -6 50 -13 71 9 90 95 6 27 -18 31 -32 4z"/>
<path d="M2554 1955 c-7 -18 4 -37 19 -32 16 5 16 47 0 47 -7 0 -16 -7 -19
-15z"/>
</g>
</svg>
